<svg xmlns="http://www.w3.org/2000/svg" viewBox="0 0 100 105"><path d="M96.68 58c-1.28-.78-2.41-1.49-3.56-2.15-6.17-3.54-12.78-4.22-19.69-3a94.34 94.34 0 00-16.13 4.82c-5.71 2.11-11.41 4.3-17.41 5.48a30.3 30.3 0 01-16.47-.9 26.41 26.41 0 01-7.22-3.92 1.75 1.75 0 01-.43-.83 2.19 2.19 0 010-.65V9.15 7.87C17 8.63 18 9.32 19.14 10a27.92 27.92 0 0018.38 3.29A76.52 76.52 0 0053 8.94c6.65-2.41 13.2-5.11 20.19-6.36 5.85-1 11.67-.91 17.19 1.62 2 .93 3.92 2.17 5.85 3.31a1.55 1.55 0 01.44.73 1.27 1.27 0 010 .47v49.26zM3.47 3.1a4.28 4.28 0 00-.17 1.18V3.1h.17zM11.86 3.1v1.18a4.28 4.28 0 00-.17-1.18h.17z"/><path d="M11.86 4.28V100H3.3V4.28a4.28 4.28 0 118.56 0z"/></svg>